<?xml version="1.0" encoding="utf-8"?>
<!-- Generator: Adobe Illustrator 19.0.0, SVG Export Plug-In . SVG Version: 6.00 Build 0)  -->
<svg version="1.1" id="Layer_1" xmlns="http://www.w3.org/2000/svg" xmlns:xlink="http://www.w3.org/1999/xlink" x="0px" y="0px"
	 viewBox="0 0 24 24" style="enable-background:new 0 0 24 24;" xml:space="preserve">
<style type="text/css">
	<!--photon color: blue-70-->
	.st0{fill:#003eaa;}
</style>
<g id="XMLID_2_">
	<g id="XMLID_10_">
		<path id="XMLID_174_" class="st0" d="M 12.9,2.8 V 1.7 h 0.8 c 0.5,0 0.9,-0.4 0.9,-0.9 0,-0.5 -0.4,-0.9 -0.9,-0.9 h -3.2 c -0.6,0.1 -1,0.5 -1,1 0,0.5 0.4,0.9 0.9,0.9 h 0.8 V 2.9 C 5.7,3.3 1.4,7.9 1.4,13.5 1.4,19.2 6.1,24 12,24 17.9,24 22.6,19.2 22.6,13.4 22.6,7.8 18.3,3.2 12.9,2.8 Z M 12,22.3 c -4.9,0 -8.9,-4 -8.9,-8.9 0,-4.9 4,-8.9 8.9,-8.9 4.9,0 8.9,4 8.9,8.9 0,4.9 -4,8.9 -8.9,8.9 z"/>
	</g>
	<g id="XMLID_3_">
		<path id="XMLID_58_" class="st0" d="m 17.9,3.7 c 0.5,0.3 0.9,0.6 1.4,1 0.2,0.1 0.4,0.2 0.5,0.2 0.2,0 0.5,-0.1 0.7,-0.3 C 20.8,4.2 20.8,3.7 20.4,3.4 19.9,3 19.4,2.6 18.8,2.3 18.4,2.1 17.9,2.2 17.6,2.6 17.4,2.9 17.5,3.4 17.9,3.7 Z"/>
	</g>
	<g transform="translate(-3.6226035,5.1772086)"
     id="XMLID_4_-8">
		<path id="XMLID_38_-1" class="st0" d="M 15.8,7.8 C 15.4,7.5 14.9,7.6 14.6,8 l -3.4,4.9 c -0.3,0.4 -0.2,0.9 0.2,1.2 0.1,0.1 0.3,0.1 0.5,0.1 0.3,0 0.5,-0.1 0.7,-0.4 L 16,8.9 C 16.3,8.6 16.2,8 15.8,7.8 Z"/>
	</g>
</g>
</svg>
